<?xml version="1.0" encoding="UTF-8" standalone="no"?>
<!-- Created with Inkscape (http://www.inkscape.org/) -->

<svg
   xmlns:dc="http://purl.org/dc/elements/1.1/"
   xmlns:cc="http://creativecommons.org/ns#"
   xmlns:rdf="http://www.w3.org/1999/02/22-rdf-syntax-ns#"
   xmlns:svg="http://www.w3.org/2000/svg"
   xmlns="http://www.w3.org/2000/svg"
   xmlns:sodipodi="http://sodipodi.sourceforge.net/DTD/sodipodi-0.dtd"
   xmlns:inkscape="http://www.inkscape.org/namespaces/inkscape"
   width="500"
   height="500"
   viewBox="0 0 132.29166 132.29167"
   version="1.1"
   id="svg8"
   inkscape:version="0.92.2 2405546, 2018-03-11"
   sodipodi:docname="tab_general.svg"
   inkscape:export-filename="/home/andy/totalbackup/src/de/andyfleig/totalbackup/resources/tab_general.png"
   inkscape:export-xdpi="19.199999"
   inkscape:export-ydpi="19.199999">
  <sodipodi:namedview
     id="base"
     pagecolor="#ffffff"
     bordercolor="#666666"
     borderopacity="1.0"
     inkscape:pageopacity="0.0"
     inkscape:pageshadow="2"
     inkscape:zoom="1.979899"
     inkscape:cx="-32.418644"
     inkscape:cy="331.21386"
     inkscape:document-units="mm"
     inkscape:current-layer="layer1"
     showgrid="false"
     inkscape:window-width="1912"
     inkscape:window-height="2023"
     inkscape:window-x="3832"
     inkscape:window-y="0"
     inkscape:window-maximized="0"
     units="px"
     inkscape:snap-global="false" />
  <defs
     id="defs2" />
  <metadata
     id="metadata5">
    <rdf:RDF>
      <cc:Work
         rdf:about="">
        <dc:format>image/svg+xml</dc:format>
        <dc:type
           rdf:resource="http://purl.org/dc/dcmitype/StillImage" />
        <dc:title />
      </cc:Work>
    </rdf:RDF>
  </metadata>
  <g
     id="layer1"
     inkscape:groupmode="layer"
     inkscape:label="Layer 1"
     transform="translate(0,-164.70832)">
    <g
       id="g820"
       transform="matrix(0.95483813,0,0,0.95483813,4.1639865,11.841602)">
      <path
         inkscape:export-ydpi="37.48682"
         inkscape:export-xdpi="37.48682"
         id="path818"
         style="fill:#999999;stroke:#999999;stroke-width:0.56884241"
         d="m 105.27662,214.50191 0.99741,-0.0804 2.65945,0.4356 3.69659,1.5467 v 2.59096 l -3.69659,1.5467 -2.65945,0.4356 -0.99741,-0.0804 -0.52538,3.99081 0.98418,0.1806 2.45611,1.10907 3.1703,2.45077 -0.67059,2.50265 -3.97094,0.53725 -2.68158,-0.26756 -0.94262,-0.33572 -1.54038,3.71884 0.90392,0.42913 2.08535,1.70698 2.42797,3.18779 -1.29546,2.24383 -3.97468,-0.50882 -2.52098,-0.95247 -0.8236,-0.56825 -2.45041,3.19344 0.76205,0.64846 1.57252,2.18852 1.52017,3.70759 -1.83207,1.83206 -3.70757,-1.52018 -2.18853,-1.57252 -0.648468,-0.76204 -3.193436,2.4504 0.568254,0.82361 0.952473,2.52098 0.508809,3.97468 -2.243823,1.29546 -3.187782,-2.42797 -1.706979,-2.08534 -0.429132,-0.90393 -3.718841,1.54037 0.335715,0.94263 0.267562,2.68158 -0.537252,3.97094 -2.502656,0.6706 -2.450757,-3.17031 -1.109075,-2.45611 -0.180575,-0.98418 -3.990813,0.52538 0.08032,0.9974 -0.435602,2.65947 -1.5467,3.69658 h -2.590955 l -1.546699,-3.69658 -0.435603,-2.65947 0.08032,-0.9974 -3.990812,-0.52538 -0.180575,0.98418 -1.109076,2.45611 -2.450756,3.17031 -2.502656,-0.6706 -0.537253,-3.97094 0.267562,-2.68158 0.335716,-0.94263 -3.718842,-1.54037 -0.429132,0.90393 -1.706979,2.08534 -3.187782,2.42797 -2.243822,-1.29546 0.508808,-3.97468 0.952473,-2.52098 0.568256,-0.82361 -3.193438,-2.4504 -0.64847,0.76204 -2.188525,1.57252 -3.707577,1.52018 -1.832064,-1.83206 1.52017,-3.70759 1.572521,-2.18852 0.762051,-0.64846 -2.450412,-3.19344 -0.823605,0.56825 -2.520973,0.95247 -3.974687,0.50882 -1.295456,-2.24383 2.427966,-3.18779 2.085349,-1.70698 0.903928,-0.42913 -1.540379,-3.71884 -0.942627,0.33572 -2.681575,0.26756 -3.970947,-0.53725 -0.670592,-2.50265 3.170303,-2.45077 2.456109,-1.10907 0.984185,-0.1806 -0.525384,-3.99081 -0.997407,0.0804 -2.659453,-0.4356 -3.696591,-1.5467 v -2.59096 l 3.696591,-1.5467 2.659453,-0.4356 0.997407,0.0804 0.525384,-3.99082 -0.984185,-0.18059 -2.456109,-1.10908 -3.170303,-2.45075 0.670592,-2.50267 3.970947,-0.53725 2.681575,0.26757 0.942627,0.33571 1.540379,-3.71884 -0.903928,-0.42913 -2.085349,-1.70698 -2.427966,-3.18778 1.295456,-2.24382 3.974687,0.5088 2.520973,0.95247 0.823605,0.56826 2.450412,-3.19343 -0.762051,-0.64848 -1.572521,-2.18852 -1.52017,-3.70758 1.832064,-1.83206 3.707577,1.52017 2.188525,1.57252 0.64847,0.76205 3.193438,-2.45041 -0.568256,-0.82361 -0.952473,-2.52097 -0.508808,-3.97469 2.243822,-1.29546 3.187782,2.42797 1.706979,2.08536 0.429132,0.90392 3.718842,-1.54038 -0.335716,-0.94263 -0.267562,-2.68158 0.537253,-3.97094 2.502656,-0.67059 2.450756,3.1703 1.109076,2.45611 0.180575,0.98418 3.990812,-0.52538 -0.08032,-0.9974 0.435603,-2.65945 1.546699,-3.6966 h 2.590955 l 1.5467,3.6966 0.435602,2.65945 -0.08032,0.9974 3.990813,0.52538 0.180575,-0.98418 1.109075,-2.45611 2.450757,-3.1703 2.502656,0.67059 0.537252,3.97094 -0.267562,2.68158 -0.335715,0.94263 3.718841,1.54038 0.429132,-0.90392 1.706979,-2.08536 3.187782,-2.42797 2.243823,1.29546 -0.508809,3.97469 -0.952473,2.52097 -0.568254,0.82361 3.193436,2.45041 0.648468,-0.76205 2.18853,-1.57252 3.70757,-1.52017 1.83207,1.83206 -1.52017,3.70758 -1.57252,2.18852 -0.76205,0.64848 2.45041,3.19343 0.8236,-0.56826 2.52098,-0.95247 3.97468,-0.5088 1.29546,2.24382 -2.42797,3.18778 -2.08535,1.70698 -0.90392,0.42913 1.54038,3.71884 0.94262,-0.33571 2.68158,-0.26757 3.97094,0.53725 0.67059,2.50267 -3.1703,2.45075 -2.45611,1.10908 -0.98418,0.18059 z"
         inkscape:connector-curvature="0" />
      <circle
         inkscape:export-ydpi="37.48682"
         inkscape:export-xdpi="37.48682"
         r="17.065273"
         id="path820"
         style="fill:#ffffff;stroke:#ffffff;stroke-width:0.56973821;stroke-miterlimit:4;stroke-dasharray:none"
         cx="65.57016"
         cy="217.6994" />
    </g>
    <flowRoot
       xml:space="preserve"
       id="flowRoot834"
       style="font-style:normal;font-weight:normal;font-size:40px;line-height:125%;font-family:Sans;letter-spacing:0px;word-spacing:0px;fill:#000000;fill-opacity:1;stroke:none;stroke-width:1px;stroke-linecap:butt;stroke-linejoin:miter;stroke-opacity:1"
       transform="matrix(0.56884242,0,0,0.56884242,-28.38139,-109.66484)"
       inkscape:export-xdpi="37.48682"
       inkscape:export-ydpi="37.48682"><flowRegion
         id="flowRegion836"><rect
           id="rect838"
           width="232.30707"
           height="53.867065"
           x="50.042881"
           y="658.87726" /></flowRegion><flowPara
         id="flowPara840"
         style="font-size:37.21007156px;text-align:center;text-anchor:middle">General</flowPara></flowRoot>  </g>
</svg>
